<svg id="Layer_1" data-name="Layer 1" xmlns="http://www.w3.org/2000/svg" viewBox="0 0 20 20"><defs><style>.cls-1{fill:#de1b17;}.cls-2{fill:#df1f1b;}</style></defs><title>boiling</title><path class="cls-1" d="M.16,11c.74-.88,1.75-.6,2.68-.61.48,0,.76-.08.65-.63-.07-.38.12-.45.46-.45q6,0,12.09,0c.42,0,.53.16.47.52s.15.6.58.56.65,0,1,0a1.86,1.86,0,0,1,1.78.62v.42c-.18.13-.38.39-.59.16-.65-.7-1.47-.3-2.21-.42-.44-.07-.53.13-.53.54,0,2,0,4,0,6a1.88,1.88,0,0,1-1,1.88H4.46a1.83,1.83,0,0,1-1-1.88c0-2,0-4,0-6,0-.19.09-.43-.12-.58a5.61,5.61,0,0,0-2.34.2.72.72,0,0,1-.86.17Z"/><path class="cls-2" d="M14,.44c.29.53.86.8,1.26,1.34L12.63,3.17C9.88,4.58,7.13,6,4.4,7.4c-.53.28-.74.29-.78-.39-.07-1.18-.1-1.18,1-1.73l3-1.56a1.47,1.47,0,0,1-.39-1.87,1.22,1.22,0,0,1,1.35-.63A1.38,1.38,0,0,1,9.78,2.62c1.39-.76,2.81-1.36,4.11-2.18Z"/><path class="cls-2" d="M15.3,3.78c.27,0,.37.33.18.62a1.72,1.72,0,0,0,.05,2A1.19,1.19,0,0,1,15,8.09c-.24.13-.48.2-.67-.08s-.06-.45.17-.58c.48-.28.41-.66.13-1-.72-.86-.3-1.64.1-2.43C14.85,3.87,15,3.75,15.3,3.78Z"/><path class="cls-2" d="M13.44,4.13c0,.08,0,.13,0,.16-.63.79-.34,1.53.06,2.32a1.15,1.15,0,0,1-.6,1.5c-.23.1-.46.15-.61-.09a.38.38,0,0,1,.15-.58c.51-.29.38-.64.12-1a2.08,2.08,0,0,1,.16-2.47.45.45,0,0,1,.49-.15C13.37,3.83,13.4,4,13.44,4.13Z"/></svg>