<svg id="Layer_1" data-name="Layer 1" xmlns="http://www.w3.org/2000/svg" viewBox="0 0 20 20"><defs><style>.cls-1{fill:#636565;}</style></defs><title>calender</title><path class="cls-1" d="M19.59,2.79v16.8H.41q0-8.4,0-16.8h3C3.59,3.91,4.16,4.55,5,4.57a2.55,2.55,0,0,0,1.17-.28A1.76,1.76,0,0,0,7,2.83H13c.27,1.16.84,1.76,1.73,1.75a2.48,2.48,0,0,0,1.12-.31,1.82,1.82,0,0,0,.82-1.47ZM18.39,6.42H1.63v12H18.39Z"/><path class="cls-1" d="M5.52.41a1.36,1.36,0,0,1,.87,1.53c0,.29,0,.6,0,.89A1.16,1.16,0,0,1,5.35,4,1.13,1.13,0,0,1,4,3a8.37,8.37,0,0,1,0-1.7c0-.51.45-.76.88-.94Z"/><path class="cls-1" d="M15.07.41A1.34,1.34,0,0,1,16,1.9c0,.31,0,.63,0,.94A1.16,1.16,0,0,1,14.77,4a1.15,1.15,0,0,1-1.16-1.2c0-.28,0-.57,0-.85A1.36,1.36,0,0,1,14.48.41Z"/><path class="cls-1" d="M6.36,17.18H4V14.83H6.36Z"/><path class="cls-1" d="M4,13.55V11.25H6.35v2.31Z"/><path class="cls-1" d="M13.65,11.24H16v2.32H13.65Z"/><path class="cls-1" d="M13.65,14.85H16v2.32H13.65Z"/><path class="cls-1" d="M4,7.64H6.36v2.3H4Z"/><path class="cls-1" d="M16,7.65V10H13.65V7.65Z"/><path class="cls-1" d="M8.86,11.24h2.29v2.33H8.86Z"/><path class="cls-1" d="M8.84,17.17V14.84h2.31v2.34Z"/><path class="cls-1" d="M8.85,7.64h2.3V9.95H8.85Z"/></svg>