<svg id="Layer_1" data-name="Layer 1" xmlns="http://www.w3.org/2000/svg" viewBox="0 0 20 20"><defs><style>.cls-1{fill:none;stroke:#3276b1;stroke-miterlimit:10;stroke-width:0.5px;}.cls-2{fill:#3276b1;}</style></defs><title>select_active</title><rect class="cls-1" x="0.83" y="0.83" width="18.33" height="18.33" rx="1.26" ry="1.26"/><path class="cls-2" d="M7.08,15.44A.22.22,0,0,1,7,15.35L3.24,11.61l-.38-.38c-.06-.06-.08-.1,0-.17L4,9.88c.08-.08.12-.07.2,0l2.7,2.71c.1.1.15.12.27,0l9-9c.2-.2.2-.2.41,0s.68.69,1,1c.1.1.11.15,0,.26L13.45,9.07,8.51,14,7.19,15.35Z"/></svg>