<svg id="Layer_1" data-name="Layer 1" xmlns="http://www.w3.org/2000/svg" viewBox="0 0 20 20"><defs><style>.cls-1{fill:#117a3d;}</style></defs><title>christmas</title><path class="cls-1" d="M8.88,19.55A16.7,16.7,0,0,1,5.33,19c-1.23-.36-2.5-.69-3.24-1.9v-.27a2.05,2.05,0,0,1,.8-.74,6.07,6.07,0,0,0,1.74-1.56A1.64,1.64,0,0,0,5,13.71c0-.16,0-.25-.21-.25a2.75,2.75,0,0,1-.63-.11.82.82,0,0,1-.7-.77,1,1,0,0,1,.49-1.07A6.77,6.77,0,0,0,5,10.78a3.67,3.67,0,0,0,1-1.1c.2-.38.18-.44-.21-.63l-.24-.13a1.19,1.19,0,0,1-.63-1c0-.43.29-.58.59-.78a28.61,28.61,0,0,0,4.1-3.57l.09-.11a.41.41,0,0,1,.21-.12l-.19.08a1.17,1.17,0,0,0-.17.08l-.25.11c-.14.06-.27.18-.44.07a.36.36,0,0,1-.1-.46A1,1,0,0,0,8.39,2c-.12-.09-.27-.2-.19-.39a.36.36,0,0,1,.39-.21A.9.9,0,0,0,9.6.7.56.56,0,0,1,9.69.52a.28.28,0,0,1,.48,0,.81.81,0,0,1,.14.27.8.8,0,0,0,.89.64h.07c.16,0,.33,0,.4.19s-.08.31-.2.43a1.4,1.4,0,0,1-.18.16A.65.65,0,0,0,11,3c.06.21.18.46,0,.64s-.54-.05-.65-.12l-.19-.11-.15-.08.26.23c.39.38.77.77,1.16,1.14a18.56,18.56,0,0,0,3.27,2.64.5.5,0,0,1,.23.43A1.15,1.15,0,0,1,14.23,9c-.51.28-.53.35-.2.85a3.19,3.19,0,0,0,.32.4,7,7,0,0,0,1.73,1.3,1,1,0,0,1,.44,1,.79.79,0,0,1-.54.75,1.82,1.82,0,0,1-.76.16c-.28,0-.29.14-.25.34a2.35,2.35,0,0,0,.59,1.06,7.1,7.1,0,0,0,1.63,1.32,1.53,1.53,0,0,1,.7.78v.34a3.17,3.17,0,0,1-1.6,1.34,13.76,13.76,0,0,1-2.77.77A39,39,0,0,1,8.88,19.55Z"/></svg>