<svg id="Layer_1" data-name="Layer 1" xmlns="http://www.w3.org/2000/svg" viewBox="0 0 20 20"><defs><style>.cls-1{fill:#3276b1;}</style></defs><title>events</title><path class="cls-1" d="M10,19.65c-2.25,0-4.5,0-6.76,0a2,2,0,0,1-2-2c0-4.52,0-9,0-13.55A1.87,1.87,0,0,1,3.2,2.27h.72c.21,0,.28-.08.28-.28,0-.43,0-.87,0-1.3,0-.24.06-.36.32-.35s.82,0,1.23,0c.24,0,.32.09.31.33,0,.43,0,.87,0,1.3,0,.22.08.31.3.31h7.27c.24,0,.32-.1.31-.33,0-.43,0-.87,0-1.3,0-.22.07-.31.3-.3q.63,0,1.27,0c.22,0,.31.08.3.3,0,.42,0,.85,0,1.27s.1.37.38.37a4.9,4.9,0,0,1,1.12.06A1.78,1.78,0,0,1,18.7,4.1q0,6.88,0,13.75a1.79,1.79,0,0,1-1.81,1.8ZM10,7H3.64c-.46,0-.46,0-.46.47,0,3.3,0,6.61,0,9.91,0,.32.08.44.42.44H16.45c.33,0,.44-.11.43-.43q0-5,0-9.95c0-.35-.11-.45-.45-.45C14.29,7,12.16,7,10,7Z"/><path class="cls-1" d="M14.84,13.43c0,.69,0,1.37,0,2.06,0,.24-.08.32-.32.32H10.35c-.24,0-.32-.08-.32-.32q0-2.09,0-4.18c0-.24.08-.32.32-.32h4.18c.24,0,.32.08.32.32C14.83,12,14.84,12.72,14.84,13.43Z"/></svg>