<svg id="Layer_1" data-name="Layer 1" xmlns="http://www.w3.org/2000/svg" viewBox="0 0 20 20"><defs><style>.cls-1{fill:#e77d25;}</style></defs><title>fire</title><path class="cls-1" d="M5.34,5.25c-.69,1.9-1,3.73.06,5.52a2.72,2.72,0,0,0,1.88,1.36c-1.51-4.67-.75-8.69,3-11.86l.22.05c-.07.6-.12,1.21-.22,1.8a9.68,9.68,0,0,0,1,5.75.69.69,0,0,0,1.05.39,2.87,2.87,0,0,0,1.48-1.82c.17-.47.27-1,.41-1.43,2.17.56,4.21,4.72,3.79,7.64A8.21,8.21,0,0,1,9,19.7C5.51,19.41,2,16,1.87,12.55,1.71,9.27,3.42,5.54,5.34,5.25Z"/></svg>