<svg id="Layer_1" data-name="Layer 1" xmlns="http://www.w3.org/2000/svg" viewBox="0 0 20 20"><defs><style>.cls-1{fill:#f4b815;}.cls-2{fill:#f5e7d5;}</style></defs><title>landscape</title><path class="cls-1" d="M19.76,10v6.4H1a2.31,2.31,0,0,1-.45,0c-.32-.06-.37-.21-.18-.48a1.5,1.5,0,0,1,.16-.18L7.27,8.92a1,1,0,0,1,1.52,0c.49.48,1,1,1.46,1.46.2.21.31.2.51,0,1.31-1.33,2.64-2.65,4-4a1,1,0,0,1,1.59,0c.4.4.77.81,1.17,1.21C18.25,8.4,19,9.22,19.76,10Zm-8.46.51a.48.48,0,0,0-.44.3.5.5,0,0,0,.11.57c.4.41.81.81,1.22,1.21a.51.51,0,0,0,.74,0,.49.49,0,0,0,0-.76L11.7,10.67A.59.59,0,0,0,11.3,10.47Z"/><path class="cls-1" d="M4.75,3.63c.08.12.23.09.34.12a2.4,2.4,0,1,1-1.4,0c.1,0,.23,0,.31-.12Z"/><path class="cls-2" d="M11.3,10.47a.59.59,0,0,1,.41.19l1.16,1.17a.49.49,0,0,1,0,.76.51.51,0,0,1-.74,0c-.41-.4-.81-.81-1.22-1.21a.5.5,0,0,1-.11-.57A.48.48,0,0,1,11.3,10.47Z"/></svg>