<svg id="Layer_1" data-name="Layer 1" xmlns="http://www.w3.org/2000/svg" viewBox="0 0 20 20"><defs><style>.cls-1{fill:#7e98d4;}</style></defs><title>mail</title><path class="cls-1" d="M19.63,3.69V16.43a1.71,1.71,0,0,1-1.45,1.25H1.83a1.86,1.86,0,0,1-1.45-2q0-5.49,0-11c0-1.64.72-2.36,2.34-2.36l14.36,0C19.15,2.32,19.44,2.7,19.63,3.69ZM10.07,15.81c2.33,0,4.65,0,7,0,.49,0,.67-.14.67-.66q0-4.13,0-8.27c0-.61-.17-.57-.59-.3C14.95,8,12.75,9.32,10.59,10.7a.91.91,0,0,1-1.15,0C7.31,9.35,5.16,8,3,6.68c-.61-.38-.65-.36-.65.35,0,2.69,0,5.38,0,8.06,0,.57.2.73.74.73C5.42,15.79,7.74,15.81,10.07,15.81ZM2.62,4.36c.21.18.27.25.35.29C5.18,6,7.4,7.42,9.61,8.82a.7.7,0,0,0,.86,0l6.42-4c.14-.09.35-.12.33-.4Z"/></svg>