<svg id="Layer_1" data-name="Layer 1" xmlns="http://www.w3.org/2000/svg" viewBox="0 0 20 20"><defs><style>.cls-1{fill:#fff;}</style></defs><title>menu</title><path class="cls-1" d="M6.23,3.72A2.51,2.51,0,1,1,3.68,1.21,2.52,2.52,0,0,1,6.23,3.72Z"/><path class="cls-1" d="M10,6.23a2.51,2.51,0,1,1,2.51-2.47A2.52,2.52,0,0,1,10,6.23Z"/><path class="cls-1" d="M16.28,6.23a2.51,2.51,0,1,1,2.51-2.47A2.52,2.52,0,0,1,16.28,6.23Z"/><path class="cls-1" d="M6.23,10A2.51,2.51,0,1,1,3.72,7.49,2.52,2.52,0,0,1,6.23,10Z"/><path class="cls-1" d="M12.51,10A2.51,2.51,0,1,1,10,7.49,2.52,2.52,0,0,1,12.51,10Z"/><path class="cls-1" d="M18.79,10a2.51,2.51,0,1,1-2.51-2.55A2.52,2.52,0,0,1,18.79,10Z"/><path class="cls-1" d="M3.72,18.79a2.51,2.51,0,1,1,2.51-2.47A2.52,2.52,0,0,1,3.72,18.79Z"/><path class="cls-1" d="M12.51,16.32A2.51,2.51,0,1,1,10,13.77,2.52,2.52,0,0,1,12.51,16.32Z"/><path class="cls-1" d="M18.79,16.31a2.51,2.51,0,1,1-2.53-2.53A2.52,2.52,0,0,1,18.79,16.31Z"/></svg>