<svg id="Layer_1" data-name="Layer 1" xmlns="http://www.w3.org/2000/svg" viewBox="0 0 20 20"><defs><style>.cls-1{fill:#525252;}</style></defs><title>search</title><path class="cls-1" d="M11.58,10.38c.27.27.54.54.81.81a.37.37,0,0,0,.21.07c.33,0,.66,0,1,.08a1.87,1.87,0,0,1,1,.58L17.67,15c.35.35.69.7,1,1.06A2.21,2.21,0,0,1,19.28,18a1.58,1.58,0,0,1-1.49,1.29,2.39,2.39,0,0,1-1.35-.3,4,4,0,0,1-.56-.47c-1.23-1.21-2.45-2.44-3.69-3.64a2.83,2.83,0,0,1-1-2.22.46.46,0,0,0-.16-.37c-.21-.2-.41-.41-.6-.63s-.16-.1-.26,0a5.53,5.53,0,0,1-2.12,1A6.21,6.21,0,0,1,5,12.52,6,6,0,0,1,1.17,9.19,6.12,6.12,0,0,1,.7,6.25,6,6,0,0,1,10.45,2a6.09,6.09,0,0,1,1.74,7.31C12,9.67,11.79,10,11.58,10.38Zm-.63-3.61a4.25,4.25,0,0,0-4.3-4.3A4.27,4.27,0,0,0,6.72,11,4.24,4.24,0,0,0,10.95,6.76Z"/></svg>