<svg id="Layer_1" data-name="Layer 1" xmlns="http://www.w3.org/2000/svg" viewBox="0 0 20 20"><defs><style>.cls-1{fill:#fff;}</style></defs><title>settings</title><path class="cls-1" d="M2,15c-.23-.47-.48-.93-.68-1.41S1,12.79.88,12.4c0-.13,0-.18.11-.22a2.24,2.24,0,0,0,1.46-2.11A2.26,2.26,0,0,0,1,7.94L.81,7.89A9.29,9.29,0,0,1,1.94,5.12a2.26,2.26,0,0,0,2.85-.54A2.24,2.24,0,0,0,5,2,9.28,9.28,0,0,1,7.78.84,2.23,2.23,0,0,0,10.2,2.49a2.21,2.21,0,0,0,2-1.65A9.28,9.28,0,0,1,14.94,2,2.28,2.28,0,0,0,18,5.07a9.2,9.2,0,0,1,1.14,2.76,2.28,2.28,0,0,0,0,4.37A9.23,9.23,0,0,1,18,14.94a2.23,2.23,0,0,0-2.77.52A2.21,2.21,0,0,0,14.94,18a8.45,8.45,0,0,1-2.74,1.15,2.29,2.29,0,0,0-4.35,0A9.25,9.25,0,0,1,5.1,18a2.22,2.22,0,0,0-.45-2.68A2.24,2.24,0,0,0,2,15Zm8-.51A4.49,4.49,0,1,0,5.51,10,4.49,4.49,0,0,0,10,14.49Z"/></svg>