<svg id="Layer_1" data-name="Layer 1" xmlns="http://www.w3.org/2000/svg" viewBox="0 0 20 20"><defs><style>.cls-1{fill:#525252;}</style></defs><title>user</title><path class="cls-1" d="M10,19.28a10,10,0,0,1-7.86-3.81A.68.68,0,0,1,2,14.89,5.6,5.6,0,0,1,5,10.57,9.21,9.21,0,0,1,6.69,10c.09,0,.23.08.34.15a5.5,5.5,0,0,0,5,.47,9,9,0,0,0,1-.52.64.64,0,0,1,.38-.07A5.68,5.68,0,0,1,18,15a.66.66,0,0,1-.11.44,9.76,9.76,0,0,1-6.63,3.79C10.82,19.24,10.41,19.25,10,19.28Z"/><path class="cls-1" d="M10,.72a4.33,4.33,0,0,1,4,5.93,5,5,0,0,1-2.15,2.71,3.32,3.32,0,0,1-3.67,0A5,5,0,0,1,5.75,4.53,4.27,4.27,0,0,1,9.16.82C9.43.77,9.71.75,10,.72Z"/></svg>