<svg id="Layer_1" data-name="Layer 1" xmlns="http://www.w3.org/2000/svg" viewBox="0 0 20 20"><defs><style>.cls-1{fill:#f9c520;}.cls-2{fill:#f9c930;}</style></defs><title>warm</title><path class="cls-1" d="M10.24,14.73A4.73,4.73,0,1,1,15,10,4.71,4.71,0,0,1,10.24,14.73Z"/><path class="cls-2" d="M11,17.78a10.28,10.28,0,0,1,0,1.08.71.71,0,0,1-.75.7.69.69,0,0,1-.75-.71c0-.72,0-1.44,0-2.15a.71.71,0,0,1,.72-.74.73.73,0,0,1,.79.75C11,17.06,11,17.42,11,17.78Z"/><path class="cls-1" d="M6.22,5.28a.62.62,0,0,1-.34.61.69.69,0,0,1-.82,0C4.49,5.3,3.93,4.75,3.41,4.17a.64.64,0,0,1,.07-.91.63.63,0,0,1,.91-.12c.6.54,1.15,1.12,1.72,1.69A.6.6,0,0,1,6.22,5.28Z"/><path class="cls-1" d="M15.12,6a.68.68,0,0,1-.76-.34.69.69,0,0,1,.06-.82c.52-.55,1.06-1.1,1.61-1.62a.65.65,0,0,1,.92,0,.63.63,0,0,1,.18.9A13.13,13.13,0,0,1,15.34,5.9.41.41,0,0,1,15.12,6Z"/><path class="cls-1" d="M5.38,14a.69.69,0,0,1,.77.34.66.66,0,0,1,0,.76c-.57.6-1.15,1.19-1.77,1.74a.61.61,0,0,1-.85-.12.62.62,0,0,1-.14-.85A13.67,13.67,0,0,1,5.15,14.1.41.41,0,0,1,5.38,14Z"/><path class="cls-1" d="M15,14a.58.58,0,0,1,.44.14c.54.54,1.09,1.06,1.61,1.62a.73.73,0,0,1-1,1c-.56-.51-1.09-1.06-1.62-1.61a.7.7,0,0,1-.08-.82A.63.63,0,0,1,15,14Z"/><path class="cls-1" d="M16,9.54a.58.58,0,0,1,.4-.21c.76,0,1.52,0,2.28,0a.66.66,0,0,1,.65.72.65.65,0,0,1-.63.74c-.76,0-1.52,0-2.28,0a.7.7,0,0,1-.64-.52A.63.63,0,0,1,16,9.54Z"/><path class="cls-2" d="M11,2.26a10.28,10.28,0,0,1,0,1.08.71.71,0,0,1-.75.7.69.69,0,0,1-.75-.71c0-.72,0-1.44,0-2.15a.71.71,0,0,1,.72-.74.73.73,0,0,1,.79.75C11,1.54,11,1.9,11,2.26Z"/><path class="cls-1" d="M.94,9.54a.58.58,0,0,1,.4-.21c.76,0,1.52,0,2.28,0a.66.66,0,0,1,.65.72.65.65,0,0,1-.63.74c-.76,0-1.52,0-2.28,0a.7.7,0,0,1-.64-.52A.63.63,0,0,1,.94,9.54Z"/></svg>